<svg class="fretboard" xmlns="http://www.w3.org/2000/svg" viewBox="0 0 1110 440">

  <title>Bass Guitar Fretboard diagram GDAE - 4 Strings - 20 Frets</title>
  <desc><![CDATA[
    Fretboard diagram for a bass guitar tuned to G D A E.
    Generated by FATpick, the tab player that listens. https://www.fatpick.com/

    Create custom fretboard diagrams like this one at https://www.fatpick.com/tools/fretboard-generator.

    Explore alternative tunings for guitar, bass and more at https://www.fatpick.com/tuning.

    Copyright © 2023 FATpick LLC.
    
	Modified/Adapted by Roberto T. Araki
  ]]></desc>

  <defs>
    <style type="text/css"><![CDATA[
      svg.fretboard { width: 100%; max-width: 100em; margin:auto; }
      svg.fretboard text { fill:#000000; stroke:#808080; dominant-baseline:central; text-anchor:middle; font-family:arial; stroke-width:0px; }
      svg.fretboard line { stroke:#777777; stroke-width:2px; stroke-linecap:round;}
      svg.fretboard rect.fbx { width: 40px; height: 80px; stroke: #777777; fill: #999999; rx:3px; ry:3px;}
      svg.fretboard rect.fbx.C  { fill: #abd595; stroke: #8ec975; }
      svg.fretboard rect.fbx.Cs, svg.fretboard rect.fbx.Db { fill: #abdac6; stroke: #8ed0b5; }
      svg.fretboard rect.fbx.D  { fill: #96d1f3; stroke: #70c3ed; }
      svg.fretboard rect.fbx.Ds, svg.fretboard rect.fbx.Eb { fill: #879bce; stroke: #6783c2; }
      svg.fretboard rect.fbx.E  { fill: #9087c0; stroke: #756bb0; }
      svg.fretboard rect.fbx.F  { fill: #ac8bc0; stroke: #9a6db0; }
      svg.fretboard rect.fbx.Fs, svg.fretboard rect.fbx.Gb { fill: #df92be; stroke: #d671ad; }
      svg.fretboard rect.fbx.G  { fill: #f489a7; stroke: #f15f90; }
      svg.fretboard rect.fbx.Gs, svg.fretboard rect.fbx.Ab { fill: #f68567; stroke: #f15b40; }
      svg.fretboard rect.fbx.A  { fill: #fec679; stroke: #fdb64e; }
      svg.fretboard rect.fbx.As, svg.fretboard rect.fbx.Bb { fill: #f9f18c; stroke: #f6ed60; }
      svg.fretboard rect.fbx.B  { fill: #c1dd89; stroke: #aed361; }
      svg.fretboard text.ftx { font-size: 36px; font-weight:800; }
      svg.fretboard text.ftx tspan.fta { font-size: 18px; }
      svg.fretboard text.ftx tspan.fta.shr { font-size: 18px; }
      svg.fretboard text.ftx tspan.fta.flt { font-size: 22px; }
      svg.fretboard text.ftx.As, svg.fretboard text.ftx.Ab, svg.fretboard text.ftx.Bb, svg.fretboard text.ftx.Cs, svg.fretboard text.ftx.Ds, svg.fretboard text.ftx.Db, svg.fretboard text.ftx.Eb, svg.fretboard text.ftx.Fs, svg.fretboard text.ftx.Gs, svg.fretboard text.ftx.Gb { font-size: 20px; font-weight:100; }
      svg.fretboard text.ftx.do, svg.fretboard text.ftx.re, svg.fretboard text.ftx.mi, svg.fretboard text.ftx.fa, svg.fretboard text.ftx.sol, svg.fretboard text.ftx.la, svg.fretboard text.ftx.si { font-size: 15px; font-weight:100; fill:#0000ff; stroke:#0000ff; }
      svg.fretboard text.fnm { fill: #404040; font-size: 16px; }
      svg.fretboard line.nut { stroke-width:4px; stroke-linecap:round; }
      svg.fretboard line.str.s1 { stroke-width:2px; }
      svg.fretboard line.str.s2 { stroke-width:2px; }
      svg.fretboard line.str.s3 { stroke-width:3px; }
      svg.fretboard line.str.s4 { stroke-width:4px; }
      svg.fretboard line.str.s5 { stroke-width:5px; }
      svg.fretboard line.str.s6 { stroke-width:6px; }
      svg.fretboard line.str.s7 { stroke-width:6px; }
      svg.fretboard line.str.s8 { stroke-width:7px; }
      svg.fretboard circle.inl { fill:#000000; stroke:#000000; stroke-width:2px; }
      svg.fretboard circle.inl.inl-o { fill:#ffffff; }
    ]]></style>
  </defs>
  
  <line class="nut" x1="75" x2="75" y1="30" y2="380"/>
    <text class="fnm" x="50" y="15">0</text>
    <text class="fnm" x="100" y="15">1</text>
    <text class="fnm" x="150" y="15">2</text>
    <text class="fnm" x="200" y="15">3</text>
    <text class="fnm" x="250" y="15">4</text>
    <text class="fnm" x="300" y="15">5</text>
    <text class="fnm" x="350" y="15">6</text>
    <text class="fnm" x="400" y="15">7</text>
    <text class="fnm" x="450" y="15">8</text>
    <text class="fnm" x="500" y="15">9</text>
    <text class="fnm" x="550" y="15">10</text>
    <text class="fnm" x="600" y="15">11</text>
    <text class="fnm" x="650" y="15">12</text>
    <text class="fnm" x="700" y="15">13</text>
    <text class="fnm" x="750" y="15">14</text>
    <text class="fnm" x="800" y="15">15</text>
    <text class="fnm" x="850" y="15">16</text>
    <text class="fnm" x="900" y="15">17</text>
    <text class="fnm" x="950" y="15">18</text>
    <text class="fnm" x="1000" y="15">19</text>
    <text class="fnm" x="1050" y="15">20</text>
  
  <line x1="75" y1="70" x2="1080" y2="70" class="str s1"/>
    <rect x="30" y="30" class="fbx G" width="40" height="80"/>
    <text x="50" y="50" class="ftx G">G</text>
    <text x="50" y="90" class="ftx sol">Sol</text>
    <rect x="80" y="30" class="fbx Gs" width="40" height="80"/>
    <text x="100" y="50" class="ftx Gs">G<tspan class="fta shr" dx="-1" dy="-8">♯</tspan></text>
    <text x="100" y="90" class="ftx Ab" dx="2">A<tspan class="fta flt" dx="-2" dy="-8">♭</tspan></text>
    <rect x="130" y="30" class="fbx A" width="40" height="80"/>
    <text x="150" y="50" class="ftx A">A</text>
    <text x="150" y="90" class="ftx la">Lá</text>
    <rect x="180" y="30" class="fbx As" width="40" height="80"/>
    <text x="200" y="50" class="ftx As">A<tspan class="fta shr" dx="-1" dy="-8">♯</tspan></text>
    <text x="200" y="90" class="ftx Bb" dx="2">B<tspan class="fta flt" dx="-2" dy="-8">♭</tspan></text>
    <rect x="230" y="30" class="fbx B" width="40" height="80"/>
    <text x="250" y="50" class="ftx B">B</text>
    <text x="250" y="90" class="ftx si">Si</text>
    <rect x="280" y="30" class="fbx C" width="40" height="80"/>
    <text x="300" y="50" class="ftx C">C</text>
    <text x="300" y="90" class="ftx do">Dó</text>
    <rect x="330" y="30" class="fbx Cs" width="40" height="80"/>
    <text x="350" y="50" class="ftx Cs">C<tspan class="fta shr" dx="-1" dy="-8">♯</tspan></text>
    <text x="350" y="90" class="ftx Db" dx="2">D<tspan class="fta flt" dx="-2" dy="-8">♭</tspan></text>
    <rect x="380" y="30" class="fbx D" width="40" height="80"/>
    <text x="400" y="50" class="ftx D">D</text>
    <text x="400" y="90" class="ftx re">Ré</text>
    <rect x="430" y="30" class="fbx Ds" width="40" height="80"/>
    <text x="450" y="50" class="ftx Ds">D<tspan class="fta shr" dx="-1" dy="-8">♯</tspan></text>
    <text x="450" y="90" class="ftx Eb" dx="2">E<tspan class="fta flt" dx="-2" dy="-8">♭</tspan></text>
    <rect x="480" y="30" class="fbx E" width="40" height="80"/>
    <text x="500" y="50" class="ftx E">E</text>
    <text x="500" y="90" class="ftx mi">Mi</text>
    <rect x="530" y="30" class="fbx F" width="40" height="80"/>
    <text x="550" y="50" class="ftx F">F</text>
    <text x="550" y="90" class="ftx fa">Fá</text>
    <rect x="580" y="30" class="fbx Fs" width="40" height="80"/>
    <text x="600" y="50" class="ftx Fs">F<tspan class="fta shr" dx="-1" dy="-8">♯</tspan></text>
    <text x="600" y="90" class="ftx Gb" dx="2">G<tspan class="fta flt" dx="-2" dy="-8">♭</tspan></text>
    <rect x="630" y="30" class="fbx G" width="40" height="80"/>
    <text x="650" y="50" class="ftx G">G</text>
    <text x="650" y="90" class="ftx sol">Sol</text>
    <rect x="680" y="30" class="fbx Gs" width="40" height="80"/>
    <text x="700" y="50" class="ftx Gs">G<tspan class="fta shr" dx="-1" dy="-8">♯</tspan></text>
    <text x="700" y="90" class="ftx Ab" dx="2">A<tspan class="fta flt" dx="-2" dy="-8">♭</tspan></text>
    <rect x="730" y="30" class="fbx A" width="40" height="80"/>
    <text x="750" y="50" class="ftx A">A</text>
    <text x="750" y="90" class="ftx la">Lá</text>
    <rect x="780" y="30" class="fbx As" width="40" height="80"/>
    <text x="800" y="50" class="ftx As">A<tspan class="fta shr" dx="-1" dy="-8">♯</tspan></text>
    <text x="800" y="90" class="ftx Bb" dx="2">B<tspan class="fta flt" dx="-2" dy="-8">♭</tspan></text>
    <rect x="830" y="30" class="fbx B" width="40" height="80"/>
    <text x="850" y="50" class="ftx B">B</text>
    <text x="850" y="90" class="ftx si">Si</text>
    <rect x="880" y="30" class="fbx C" width="40" height="80"/>
    <text x="900" y="50" class="ftx C">C</text>
    <text x="900" y="90" class="ftx do">Dó</text>
    <rect x="930" y="30" class="fbx Cs" width="40" height="80"/>
    <text x="950" y="50" class="ftx Cs">C<tspan class="fta shr" dx="-1" dy="-8">♯</tspan></text>
    <text x="950" y="90" class="ftx Db" dx="2">D<tspan class="fta flt" dx="-2" dy="-8">♭</tspan></text>
    <rect x="980" y="30" class="fbx D" width="40" height="80"/>
    <text x="1000" y="50" class="ftx D">D</text>
    <text x="1000" y="90" class="ftx re">Ré</text>
    <rect x="1030" y="30" class="fbx Ds" width="40" height="80"/>
    <text x="1050" y="50" class="ftx Ds">D<tspan class="fta shr" dx="-1" dy="-8">♯</tspan></text>
    <text x="1050" y="90" class="ftx Eb" dx="2">E<tspan class="fta flt" dx="-2" dy="-8">♭</tspan></text>
  
  <line x1="75" y1="160" x2="1080" y2="160" class="str s2"/>
    <rect x="30" y="120" class="fbx D" width="40" height="80"/>
    <text x="50" y="140" class="ftx D">D</text>
    <text x="50" y="180" class="ftx re">Ré</text>
    <rect x="80" y="120" class="fbx Ds" width="40" height="80"/>
    <text x="100" y="140" class="ftx Ds">D<tspan class="fta shr" dx="-1" dy="-8">♯</tspan></text>
    <text x="100" y="180" class="ftx Eb" dx="2">E<tspan class="fta flt" dx="-2" dy="-8">♭</tspan></text>
    <rect x="130" y="120" class="fbx E" width="40" height="80"/>
    <text x="150" y="140" class="ftx E">E</text>
    <text x="150" y="180" class="ftx mi">Mi</text>
    <rect x="180" y="120" class="fbx F" width="40" height="80"/>
    <text x="200" y="140" class="ftx F">F</text>
    <text x="200" y="180" class="ftx fa">Fá</text>
    <rect x="230" y="120" class="fbx Fs" width="40" height="80"/>
    <text x="250" y="140" class="ftx Fs">F<tspan class="fta shr" dx="-1" dy="-8">♯</tspan></text>
    <text x="250" y="180" class="ftx Gb" dx="2">G<tspan class="fta flt" dx="-2" dy="-8">♭</tspan></text>
    <rect x="280" y="120" class="fbx G" width="40" height="80"/>
    <text x="300" y="140" class="ftx G">G</text>
    <text x="300" y="180" class="ftx sol">Sol</text>
    <rect x="330" y="120" class="fbx Gs" width="40" height="80"/>
    <text x="350" y="140" class="ftx Gs">G<tspan class="fta shr" dx="-1" dy="-8">♯</tspan></text>
    <text x="350" y="180" class="ftx Ab" dx="2">A<tspan class="fta flt" dx="-2" dy="-8">♭</tspan></text>
    <rect x="380" y="120" class="fbx A" width="40" height="80"/>
    <text x="400" y="140" class="ftx A">A</text>
    <text x="400" y="180" class="ftx la">Lá</text>
    <rect x="430" y="120" class="fbx As" width="40" height="80"/>
    <text x="450" y="140" class="ftx As">A<tspan class="fta shr" dx="-1" dy="-8">♯</tspan></text>
    <text x="450" y="180" class="ftx Bb" dx="2">B<tspan class="fta flt" dx="-2" dy="-8">♭</tspan></text>
    <rect x="480" y="120" class="fbx B" width="40" height="80"/>
    <text x="500" y="140" class="ftx B">B</text>
    <text x="500" y="180" class="ftx si">Si</text>
    <rect x="530" y="120" class="fbx C" width="40" height="80"/>
    <text x="550" y="140" class="ftx C">C</text>
    <text x="550" y="180" class="ftx do">Dó</text>
    <rect x="580" y="120" class="fbx Cs" width="40" height="80"/>
    <text x="600" y="140" class="ftx Cs">C<tspan class="fta shr" dx="-1" dy="-8">♯</tspan></text>
    <text x="600" y="180" class="ftx Db" dx="2">D<tspan class="fta flt" dx="-2" dy="-8">♭</tspan></text>
    <rect x="630" y="120" class="fbx D" width="40" height="80"/>
    <text x="650" y="140" class="ftx D">D</text>
    <text x="650" y="180" class="ftx re">Ré</text>
    <rect x="680" y="120" class="fbx Ds" width="40" height="80"/>
    <text x="700" y="140" class="ftx Ds">D<tspan class="fta shr" dx="-1" dy="-8">♯</tspan></text>
    <text x="700" y="180" class="ftx Eb" dx="2">E<tspan class="fta flt" dx="-2" dy="-8">♭</tspan></text>
    <rect x="730" y="120" class="fbx E" width="40" height="80"/>
    <text x="750" y="140" class="ftx E">E</text>
    <text x="750" y="180" class="ftx mi">Mi</text>
    <rect x="780" y="120" class="fbx F" width="40" height="80"/>
    <text x="800" y="140" class="ftx F">F</text>
    <text x="800" y="180" class="ftx fa">Fá</text>
    <rect x="830" y="120" class="fbx Fs" width="40" height="80"/>
    <text x="850" y="140" class="ftx Fs">F<tspan class="fta shr" dx="-1" dy="-8">♯</tspan></text>
    <text x="850" y="180" class="ftx Gb" dx="2">G<tspan class="fta flt" dx="-2" dy="-8">♭</tspan></text>
    <rect x="880" y="120" class="fbx G" width="40" height="80"/>
    <text x="900" y="140" class="ftx G">G</text>
    <text x="900" y="180" class="ftx sol">Sol</text>
    <rect x="930" y="120" class="fbx Gs" width="40" height="80"/>
    <text x="950" y="140" class="ftx Gs">G<tspan class="fta shr" dx="-1" dy="-8">♯</tspan></text>
    <text x="950" y="180" class="ftx Ab" dx="2">A<tspan class="fta flt" dx="-2" dy="-8">♭</tspan></text>
    <rect x="980" y="120" class="fbx A" width="40" height="80"/>
    <text x="1000" y="140" class="ftx A">A</text>
    <text x="1000" y="180" class="ftx la">Lá</text>
    <rect x="1030" y="120" class="fbx As" width="40" height="80"/>
    <text x="1050" y="140" class="ftx As">A<tspan class="fta shr" dx="-1" dy="-8">♯</tspan></text>
    <text x="1050" y="180" class="ftx Bb" dx="2">B<tspan class="fta flt" dx="-2" dy="-8">♭</tspan></text>
  
  <line x1="75" y1="250" x2="1080" y2="250" class="str s3"/>
    <rect x="30" y="210" class="fbx A" width="40" height="80"/>
    <text x="50" y="230" class="ftx A">A</text>
    <text x="50" y="270" class="ftx la">Lá</text>
    <rect x="80" y="210" class="fbx As" width="40" height="80"/>
    <text x="100" y="230" class="ftx As">A<tspan class="fta shr" dx="-1" dy="-8">♯</tspan></text>
    <text x="100" y="270" class="ftx Bb" dx="2">B<tspan class="fta flt" dx="-2" dy="-8">♭</tspan></text>
    <rect x="130" y="210" class="fbx B" width="40" height="80"/>
    <text x="150" y="230" class="ftx B">B</text>
    <text x="150" y="270" class="ftx si">Si</text>
    <rect x="180" y="210" class="fbx C" width="40" height="80"/>
    <text x="200" y="230" class="ftx C">C</text>
    <text x="200" y="270" class="ftx do">Dó</text>
    <rect x="230" y="210" class="fbx Cs" width="40" height="80"/>
    <text x="250" y="230" class="ftx Cs">C<tspan class="fta shr" dx="-1" dy="-8">♯</tspan></text>
    <text x="250" y="270" class="ftx Db" dx="2">D<tspan class="fta flt" dx="-2" dy="-8">♭</tspan></text>
    <rect x="280" y="210" class="fbx D" width="40" height="80"/>
    <text x="300" y="230" class="ftx D">D</text>
    <text x="300" y="270" class="ftx re">Ré</text>
    <rect x="330" y="210" class="fbx Ds" width="40" height="80"/>
    <text x="350" y="230" class="ftx Ds">D<tspan class="fta shr" dx="-1" dy="-8">♯</tspan></text>
    <text x="350" y="270" class="ftx Eb" dx="2">E<tspan class="fta flt" dx="-2" dy="-8">♭</tspan></text>
    <rect x="380" y="210" class="fbx E" width="40" height="80"/>
    <text x="400" y="230" class="ftx E">E</text>
    <text x="400" y="270" class="ftx mi">Mi</text>
    <rect x="430" y="210" class="fbx F" width="40" height="80"/>
    <text x="450" y="230" class="ftx F">F</text>
    <text x="450" y="270" class="ftx fa">Fá</text>
    <rect x="480" y="210" class="fbx Fs" width="40" height="80"/>
    <text x="500" y="230" class="ftx Fs">F<tspan class="fta shr" dx="-1" dy="-8">♯</tspan></text>
    <text x="500" y="270" class="ftx Gb" dx="2">G<tspan class="fta flt" dx="-2" dy="-8">♭</tspan></text>
    <rect x="530" y="210" class="fbx G" width="40" height="80"/>
    <text x="550" y="230" class="ftx G">G</text>
    <text x="550" y="270" class="ftx sol">Sol</text>
    <rect x="580" y="210" class="fbx Gs" width="40" height="80"/>
    <text x="600" y="230" class="ftx Gs">G<tspan class="fta shr" dx="-1" dy="-8">♯</tspan></text>
    <text x="600" y="270" class="ftx Ab" dx="2">A<tspan class="fta flt" dx="-2" dy="-8">♭</tspan></text>
    <rect x="630" y="210" class="fbx A" width="40" height="80"/>
    <text x="650" y="230" class="ftx A">A</text>
    <text x="650" y="270" class="ftx la">Lá</text>
    <rect x="680" y="210" class="fbx As" width="40" height="80"/>
    <text x="700" y="230" class="ftx As">A<tspan class="fta shr" dx="-1" dy="-8">♯</tspan></text>
    <text x="700" y="270" class="ftx Bb" dx="2">B<tspan class="fta flt" dx="-2" dy="-8">♭</tspan></text>
    <rect x="730" y="210" class="fbx B" width="40" height="80"/>
    <text x="750" y="230" class="ftx B">B</text>
    <text x="750" y="270" class="ftx si">Si</text>
    <rect x="780" y="210" class="fbx C" width="40" height="80"/>
    <text x="800" y="230" class="ftx C">C</text>
    <text x="800" y="270" class="ftx do">Dó</text>
    <rect x="830" y="210" class="fbx Cs" width="40" height="80"/>
    <text x="850" y="230" class="ftx Cs">C<tspan class="fta shr" dx="-1" dy="-8">♯</tspan></text>
    <text x="850" y="270" class="ftx Db" dx="2">D<tspan class="fta flt" dx="-2" dy="-8">♭</tspan></text>
    <rect x="880" y="210" class="fbx D" width="40" height="80"/>
    <text x="900" y="230" class="ftx D">D</text>
    <text x="900" y="270" class="ftx re">Ré</text>
    <rect x="930" y="210" class="fbx Ds" width="40" height="80"/>
    <text x="950" y="230" class="ftx Ds">D<tspan class="fta shr" dx="-1" dy="-8">♯</tspan></text>
    <text x="950" y="270" class="ftx Eb" dx="2">E<tspan class="fta flt" dx="-2" dy="-8">♭</tspan></text>
    <rect x="980" y="210" class="fbx E" width="40" height="80"/>
    <text x="1000" y="230" class="ftx E">E</text>
    <text x="1000" y="270" class="ftx mi">Mi</text>
    <rect x="1030" y="210" class="fbx F" width="40" height="80"/>
    <text x="1050" y="230" class="ftx F">F</text>
    <text x="1050" y="270" class="ftx fa">Fá</text>
  
  <line x1="75" y1="340" x2="1080" y2="340" class="str s4"/>
    <rect x="30" y="300" class="fbx E" width="40" height="80"/>
    <text x="50" y="320" class="ftx E">E</text>
    <text x="50" y="360" class="ftx mi">Mi</text>
    <rect x="80" y="300" class="fbx F" width="40" height="80"/>
    <text x="100" y="320" class="ftx F">F</text>
    <text x="100" y="360" class="ftx fa">Fá</text>
    <rect x="130" y="300" class="fbx Fs" width="40" height="80"/>
    <text x="150" y="320" class="ftx Fs">F<tspan class="fta shr" dx="-1" dy="-8">♯</tspan></text>
    <text x="150" y="360" class="ftx Gb" dx="2">G<tspan class="fta flt" dx="-2" dy="-8">♭</tspan></text>
    <rect x="180" y="300" class="fbx G" width="40" height="80"/>
    <text x="200" y="320" class="ftx G">G</text>
    <text x="200" y="360" class="ftx sol">Sol</text>
    <rect x="230" y="300" class="fbx Gs" width="40" height="80"/>
    <text x="250" y="320" class="ftx Gs">G<tspan class="fta shr" dx="-1" dy="-8">♯</tspan></text>
    <text x="250" y="360" class="ftx Ab" dx="2">A<tspan class="fta flt" dx="-2" dy="-8">♭</tspan></text>
    <rect x="280" y="300" class="fbx A" width="40" height="80"/>
    <text x="300" y="320" class="ftx A">A</text>
    <text x="300" y="360" class="ftx la">Lá</text>
    <rect x="330" y="300" class="fbx As" width="40" height="80"/>
    <text x="350" y="320" class="ftx As">A<tspan class="fta shr" dx="-1" dy="-8">♯</tspan></text>
    <text x="350" y="360" class="ftx Bb" dx="2">B<tspan class="fta flt" dx="-2" dy="-8">♭</tspan></text>
    <rect x="380" y="300" class="fbx B" width="40" height="80"/>
    <text x="400" y="320" class="ftx B">B</text>
    <text x="400" y="360" class="ftx si">Si</text>
    <rect x="430" y="300" class="fbx C" width="40" height="80"/>
    <text x="450" y="320" class="ftx C">C</text>
    <text x="450" y="360" class="ftx do">Dó</text>
    <rect x="480" y="300" class="fbx Cs" width="40" height="80"/>
    <text x="500" y="320" class="ftx Cs">C<tspan class="fta shr" dx="-1" dy="-8">♯</tspan></text>
    <text x="500" y="360" class="ftx Db" dx="2">D<tspan class="fta flt" dx="-2" dy="-8">♭</tspan></text>
    <rect x="530" y="300" class="fbx D" width="40" height="80"/>
    <text x="550" y="320" class="ftx D">D</text>
    <text x="550" y="360" class="ftx re">Ré</text>
    <rect x="580" y="300" class="fbx Ds" width="40" height="80"/>
    <text x="600" y="320" class="ftx Ds">D<tspan class="fta shr" dx="-1" dy="-8">♯</tspan></text>
    <text x="600" y="360" class="ftx Eb" dx="2">E<tspan class="fta flt" dx="-2" dy="-8">♭</tspan></text>
    <rect x="630" y="300" class="fbx E" width="40" height="80"/>
    <text x="650" y="320" class="ftx E">E</text>
    <text x="650" y="360" class="ftx mi">Mi</text>
    <rect x="680" y="300" class="fbx F" width="40" height="80"/>
    <text x="700" y="320" class="ftx F">F</text>
    <text x="700" y="360" class="ftx fa">Fá</text>
    <rect x="730" y="300" class="fbx Fs" width="40" height="80"/>
    <text x="750" y="320" class="ftx Fs">F<tspan class="fta shr" dx="-1" dy="-8">♯</tspan></text>
    <text x="750" y="360" class="ftx Gb" dx="2">G<tspan class="fta flt" dx="-2" dy="-8">♭</tspan></text>
    <rect x="780" y="300" class="fbx G" width="40" height="80"/>
    <text x="800" y="320" class="ftx G">G</text>
    <text x="800" y="360" class="ftx sol">Sol</text>
    <rect x="830" y="300" class="fbx Gs" width="40" height="80"/>
    <text x="850" y="320" class="ftx Gs">G<tspan class="fta shr" dx="-1" dy="-8">♯</tspan></text>
    <text x="850" y="360" class="ftx Ab" dx="2">A<tspan class="fta flt" dx="-2" dy="-8">♭</tspan></text>
    <rect x="880" y="300" class="fbx A" width="40" height="80"/>
    <text x="900" y="320" class="ftx A">A</text>
    <text x="900" y="360" class="ftx la">Lá</text>
    <rect x="930" y="300" class="fbx As" width="40" height="80"/>
    <text x="950" y="320" class="ftx As">A<tspan class="fta shr" dx="-1" dy="-8">♯</tspan></text>
    <text x="950" y="360" class="ftx Bb" dx="2">B<tspan class="fta flt" dx="-2" dy="-8">♭</tspan></text>
    <rect x="980" y="300" class="fbx B" width="40" height="80"/>
    <text x="1000" y="320" class="ftx B">B</text>
    <text x="1000" y="360" class="ftx si">Si</text>
    <rect x="1030" y="300" class="fbx C" width="40" height="80"/>
    <text x="1050" y="320" class="ftx C">C</text>
    <text x="1050" y="360" class="ftx do">Dó</text>

  <line class="nut" x1="75" x2="75" y1="30" y2="380"/>
    <text class="fnm" x="50" y="395">0</text>
    <text class="fnm" x="100" y="395">1</text>
    <text class="fnm" x="150" y="395">2</text>
    <text class="fnm" x="200" y="395">3</text>
    <text class="fnm" x="250" y="395">4</text>
    <text class="fnm" x="300" y="395">5</text>
    <text class="fnm" x="350" y="395">6</text>
    <text class="fnm" x="400" y="395">7</text>
    <text class="fnm" x="450" y="395">8</text>
    <text class="fnm" x="500" y="395">9</text>
    <text class="fnm" x="550" y="395">10</text>
    <text class="fnm" x="600" y="395">11</text>
    <text class="fnm" x="650" y="395">12</text>
    <text class="fnm" x="700" y="395">13</text>
    <text class="fnm" x="750" y="395">14</text>
    <text class="fnm" x="800" y="395">15</text>
    <text class="fnm" x="850" y="395">16</text>
    <text class="fnm" x="900" y="395">17</text>
    <text class="fnm" x="950" y="395">18</text>
    <text class="fnm" x="1000" y="395">19</text>
    <text class="fnm" x="1050" y="395">20</text>

  <circle cx="50"  cy="420" r="3" class="inl inl-o"/>
  <circle cx="200"  cy="420" r="3" class="inl"/>
  <circle cx="300"  cy="420" r="3" class="inl"/>
  <circle cx="400"  cy="420" r="3" class="inl"/>
  <circle cx="500"  cy="420" r="3" class="inl"/>
  <circle cx="650" cy="415" r="3" class="inl inl-d"/>
  <circle cx="650" cy="425" r="3" class="inl inl-d"/>
  <circle cx="800" cy="420" r="3" class="inl"/>
  <circle cx="900" cy="420" r="3" class="inl"/>
  <circle cx="1000" cy="420" r="3" class="inl"/>

</svg>
